<?xml version="1.0" encoding="utf-8"?>
<!-- Generator: Adobe Illustrator 17.1.0, SVG Export Plug-In . SVG Version: 6.00 Build 0)  -->
<!DOCTYPE svg PUBLIC "-//W3C//DTD SVG 1.1//EN" "http://www.w3.org/Graphics/SVG/1.1/DTD/svg11.dtd">
<svg version="1.1" id="Capa_1" xmlns="http://www.w3.org/2000/svg" xmlns:xlink="http://www.w3.org/1999/xlink" x="0px" y="0px"
	 viewBox="0 0 323.551 100.66" enable-background="new 0 0 323.551 100.66" xml:space="preserve">
<g>
	<polygon fill="#CCCCCC" points="9.824,35.336 9.913,35.336 22.997,56.395 29.914,56.395 29.914,24.94 23.438,24.94 23.438,46.042 
		23.35,46.042 10.221,24.94 3.348,24.94 3.348,56.395 9.824,56.395 	"/>
	<path fill="#CCCCCC" d="M48.486,57.144c3.04,0,6.212-1.189,8.635-4.317l0.705,3.568h4.406V39.39H49.014v5.155h6.961
		c-0.397,4.362-2.996,6.784-7.49,6.784c-6.212,0-8.547-5.287-8.547-10.529c0-5.507,2.335-10.794,8.547-10.794
		c3.26,0,5.859,1.806,6.652,5.287h6.608c-0.749-7.137-6.829-11.102-13.261-11.102c-9.736,0-15.463,7.269-15.463,16.609
		C33.022,49.875,38.749,57.144,48.486,57.144z"/>
	<path fill="#CCCCCC" d="M95.644,40.8c0-9.34-5.727-16.609-15.463-16.609c-9.736,0-15.464,7.269-15.464,16.609
		c0,9.075,5.727,16.344,15.464,16.344C89.917,57.144,95.644,49.875,95.644,40.8z M71.634,40.8c0-5.507,2.335-10.794,8.547-10.794
		c6.212,0,8.547,5.287,8.547,10.794c0,5.242-2.335,10.529-8.547,10.529C73.969,51.329,71.634,46.042,71.634,40.8z"/>
	<path fill="#CCCCCC" d="M11.939,61.186L0,92.642h7.005l2.467-7.005h11.763l2.379,7.005h7.181L19.032,61.186H11.939z M11.278,80.482
		l4.097-11.542h0.088l3.965,11.542H11.278z"/>
	<rect x="31.903" y="61.186" fill="#CCCCCC" width="6.256" height="5.154"/>
	<rect x="31.903" y="69.866" fill="#CCCCCC" width="6.256" height="22.776"/>
	<path fill="#CCCCCC" d="M57.688,72.64H57.6c-1.41-2.247-4.053-3.392-6.74-3.392c-6.696,0-10.089,5.684-10.089,11.807
		c0,6.3,3.348,12.204,10.221,12.204c2.908,0,5.463-1.058,6.917-3.525h0.088v2.908h5.948V61.186h-6.256V72.64z M52.534,88.544
		c-3.877,0-5.507-3.745-5.507-7.313c0-3.745,1.41-7.268,5.507-7.268c4.053,0,5.375,3.524,5.375,7.224
		C57.908,84.932,56.675,88.544,52.534,88.544z"/>
	<polygon fill="#CCCCCC" points="93.238,82.818 93.15,82.818 85.793,61.186 76.057,61.186 76.057,92.642 82.533,92.642 
		82.533,70.569 82.621,70.569 90.33,92.642 95.661,92.642 103.371,70.35 103.46,70.35 103.46,92.642 109.936,92.642 109.936,61.186 
		100.2,61.186 	"/>
	<path fill="#CCCCCC" d="M134.454,75.724c0-5.463-5.463-6.476-10.001-6.476c-5.11,0-10.352,1.763-10.705,7.622h6.255
		c0.221-2.468,1.763-3.436,4.142-3.436c2.203,0,4.053,0.396,4.053,3.084c0,2.555-3.568,2.422-7.4,2.995
		c-3.878,0.529-7.754,1.763-7.754,6.917c0,4.669,3.436,6.829,7.754,6.829c2.774,0,5.682-0.75,7.665-2.82
		c0.044,0.75,0.219,1.498,0.44,2.203h6.344c-0.573-0.924-0.792-2.995-0.792-5.066V75.724z M128.197,83.831
		c0,1.366-0.176,5.242-5.066,5.242c-2.026,0-3.833-0.573-3.833-2.908c0-2.29,1.763-2.952,3.702-3.348
		c1.938-0.353,4.14-0.397,5.198-1.323V83.831z"/>
	<path fill="#CCCCCC" d="M150.854,69.248c-2.82,0-5.287,1.102-6.784,3.525h-0.089v-2.908h-5.947v30.794h6.255V89.823h0.089
		c1.498,2.247,4.097,3.437,6.829,3.437c6.652,0,10-5.684,10-11.764C161.207,75.019,157.991,69.248,150.854,69.248z M149.533,88.544
		c-4.054,0-5.463-3.524-5.463-7.224c0-3.702,1.321-7.357,5.418-7.357c4.008,0,5.463,3.745,5.463,7.357
		C154.951,85.02,153.63,88.544,149.533,88.544z"/>
	<path fill="#CCCCCC" d="M156.005,40.106h-6.148v-1.847h0.003c0.001,0.027,0.006,0.053,0.007,0.08h6.142
		c-0.423-12.165-10.411-21.895-22.678-21.895c-12.268,0-22.257,9.731-22.679,21.895h6.541c0.067-1.517,0.352-2.975,0.805-4.358
		c0.147,0.142,0.29,0.288,0.446,0.416c0.345,0.277,0.499,0.478,0.572,0.954c0.09,0.601,0.041,0.524,0.688,0.558
		c0.384,1.182,0.423,1.86,1.874,2.085c0.603,0.094,1.278,0.049,1.823,0.361c0.327,0.197,0.619,0.449,0.949,0.646
		c0.375,0.224,0.573,0.467,0.875,0.78c0.298,0.32,0.848,0.497,1.093,0.835c0.525,0.677-0.643,1.614-0.739,2.33
		c-0.173,1.301,1.372,2.288,2.253,2.992c1.167,0.921,0.833,2.179,0.66,3.504c-0.252,1.98-0.152,4.282,1.518,5.59
		c-7.011-1.541-12.339-7.568-12.798-14.927h-6.555c0.507,12.088,10.461,21.732,22.675,21.732c5.796,0,11.067-2.19,15.077-5.765
		l19.072,14.417l5.822-7.691l-19.207-14.521C155.205,45.759,155.883,43.006,156.005,40.106z M131.471,54.627
		c-0.234-0.616-0.569-2.104-0.212-2.703c0.107-0.174,0.333-0.316,0.516-0.403c-0.062,0.058-0.118,0.138-0.19,0.206
		c0.12-0.057,0.213-0.105,0.316-0.174c0-0.011-0.008-0.024-0.014-0.024c0.626-0.595,1.652-1.125,1.923-1.975
		c0.104-0.339,0.016-0.706,0.214-1.025c0.258-0.421,0.826-0.585,1.237-0.815c0.417-0.224,0.812-0.447,0.841-0.959
		c0.026-0.411-0.268-0.786-0.202-1.21c0.131-0.772,1.578-1.306,1.033-2.147c-0.529-0.813-1.958-0.803-2.774-1.14
		c-0.712-0.296-1.124-0.954-1.778-1.339c-0.785-0.461-1.584-0.774-2.337-1.306c-0.782-0.545-1.729-0.973-2.679-0.58
		c-0.632,0.264-1.601,1.13-2.241,0.345c-0.242-0.305-0.05-0.664-0.203-0.973c-0.155-0.312-0.807-0.239-0.901-0.502
		c-0.132-0.327,0.618-0.565,0.595-0.659c-0.274-0.919-1.419,0.049-1.965-0.011c-0.544-0.065-1.053-0.771-1.064-1.3
		c-0.035-1.502,2.054-2.206,3.246-1.816c0.766,0.253,0.945,0.782,0.726,1.482c0.699,0.046,1.101-0.443,1.26-1.089
		c0.212-0.852,0.484-1.21,1.153-1.871c-0.011,0.034-0.041,0.052-0.054,0.08c0,0.006,0.08-0.039,0.098-0.044
		c0.32-0.258,0.666-0.489,0.953-0.811c0.343-0.39,0.528-0.8,1.028-1.045c0.56-0.275,2.372,0.066,2.122-1.121
		c-0.176-0.019-0.269-0.098-0.369-0.226c0.44-0.467,1.455-0.017,1.58,0.545c0.496,0.036,0.835-0.452,0.828-0.908
		c-0.019-0.553-0.517-0.729-0.931-1.01c-0.548-0.375-1.214-1.498-1.935-1.378c-1.146,0.191-1.573,1.894-2.893,1.472
		c-0.929-0.292-1.397-1.401-0.231-1.773c0.588-0.193,1.878-0.285,1.461-1.264c-0.494-1.147-1.607,0.284-2.271,0.411
		c-0.588,0.107-1.3,0.095-1.894,0.072c-0.475-0.022-0.616-0.074-0.773-0.323c0.222-0.143,0.454-0.269,0.683-0.401
		c0.267,0.25,0.775,0.275,1.139,0.223c0.27-0.043,0.671-0.167,0.55-0.524c-0.107-0.315-0.416-0.165-0.633-0.259
		c1.554-0.752,3.242-1.264,5.023-1.49c-0.144,0.692-1.435,1.185-0.475,1.883c0.547,0.393,0.745,0.362,1.035,0.984
		c0.171,0.372,0.409,0.99,0.909,1.01c0.503,0.013,0.803-0.595,0.803-1.014c0-0.57-0.378-0.935-0.881-1.147
		c-0.34-0.138-0.628-0.085-0.671-0.489c-0.028-0.317,0.391-0.918,0.68-1.033c0.434-0.175,0.709,0.151,1.041,0.371
		c0.391,0.254,0.62,0.303,1.083,0.272c0.896-0.067,1.73,0.183,1.429,1.266c-0.147,0.54-0.851,2.307,0.479,2.002
		c0.511-0.117,0.865-0.711,1.256-1.01c0.466-0.352,0.952-0.467,1.515-0.546c0.565-0.086,1.387-0.2,1.989-0.526
		c1.207,0.692,2.323,1.524,3.311,2.49c-0.329,0.085-0.698,0.111-0.988,0.27c-0.415,0.228-1.052,1.038-0.66,1.51
		c0.426,0.519,1.484-0.487,1.678,0.211c0.069,0.225-0.259,0.477-0.163,0.744c0.124,0.328,0.82,0.387,0.516,0.86
		c-0.212,0.334-1.118,0.264-1.473,0.58c-1.2,1.064,0.95,1.159,1.635,0.828c0.641-0.305,0.259-0.828,0.685-1.177
		c0.468-0.386,1.212-0.273,1.695,0.046c0.412,0.755,0.776,1.539,1.067,2.359c-0.487,0.054-0.782-0.105-1.228-0.624
		c-0.428-0.497-0.753-0.36-1.302-0.074c-0.638,0.335-1.147,0.562-1.88,0.628c-0.631,0.057-0.833,0.236-1.178,0.777
		c-0.613,0.979-1.879,1.818-2.097,2.989c-0.163,0.891,0.31,1.758,0.775,2.48c0.812,1.275,1.629,1.785,3.068,1.115
		c1.343-0.625,2.423-0.669,2.482,0.982c0.041,1.024,1.272,1.266,1.543,2.045c-2.071,6.658-8.261,11.499-15.599,11.499
		c-0.669,0-1.324-0.053-1.972-0.131C131.604,55.143,131.589,54.928,131.471,54.627z"/>
	<path fill="#CCCCCC" d="M131.94,51.526c-0.012,0.004-0.023,0.017-0.039,0.028c0,0.002,0.002,0.011,0,0.014
		C131.903,51.566,131.933,51.53,131.94,51.526z"/>
	<path fill="#CCCCCC" d="M128.019,32.672c0-0.001-0.003,0.001-0.006,0.002c-0.037,0.03-0.077,0.059-0.113,0.09
		C127.938,32.724,127.991,32.704,128.019,32.672z"/>
	<path fill="#CCCCCC" d="M125.346,36.292h0.052c0.124,0.485,0.16,0.585,0.773,0.541c0.33-0.023,0.948-0.117,0.908-0.581
		C126.741,36.121,125.626,36.072,125.346,36.292z"/>
	<path fill="#CCCCCC" d="M241.869,35.939h6.711c3.385-8.824,11.943-15.102,21.943-15.102c9.997,0,18.555,6.279,21.941,15.102h6.716
		c-3.635-12.395-15.103-21.475-28.656-21.475C256.971,14.464,245.505,23.544,241.869,35.939z"/>
	<path fill="#CCCCCC" d="M273.461,74.052c11.987-1.175,21.91-9.471,25.491-20.588h-6.629
		C289.144,62.265,281.841,70.403,273.461,74.052z"/>
	<path fill="#CCCCCC" d="M282.518,35.939h6.606c-3.313-9.164-12.171-12.551-17.921-12.551
		C276.363,26.015,280.427,30.491,282.518,35.939z"/>
	<path fill="#CCCCCC" d="M259.898,65.274c-4.921-2.506-8.836-6.7-11.003-11.81h-6.683C246.035,63.045,255.93,65.274,259.898,65.274z
		"/>
	<path fill="#CCCCCC" d="M257.64,14.608c-14.646,1.436-26.215,13.499-26.89,28.354h6.383
		C237.737,34.201,244.554,20.305,257.64,14.608z"/>
	<path fill="#CCCCCC" d="M260.574,74.198c13.285,0,24.569-8.72,28.438-20.734h-6.797c-3.571,8.429-11.924,14.36-21.641,14.36
		c-12.429,0-22.634-9.706-23.437-21.94h-6.379C231.569,61.631,244.628,74.198,260.574,74.198z"/>
	<rect x="241.587" y="38.703" fill="#CCCCCC" width="2.974" height="11.928"/>
	<path fill="#CCCCCC" d="M246.03,41.827v8.804h2.602v-4.764c0-1.101,0-2.199,1.368-2.199c0.507,0,0.963,0.206,1.166,0.677
		c0.102,0.237,0.12,0.523,0.12,1.318v4.968h2.585v-6.034c0-1.365-0.237-2.163-1.167-2.651c-0.455-0.253-1.048-0.354-1.572-0.354
		c-0.624,0-1.199,0.151-1.603,0.321c-0.456,0.221-0.626,0.419-0.88,0.693v-0.78H246.03z"/>
	<path fill="#CCCCCC" d="M258.414,43.604h1.725v-1.589h-1.707V39.26h-2.585v2.736h-1.287v1.588h1.287v4.258
		c0,0.845,0.014,1.47,0.371,1.994c0.557,0.812,1.537,0.862,2.432,0.862c0.473,0,0.811-0.05,1.369-0.132v-2.031l-0.929,0.032
		c-0.694,0-0.694-0.454-0.677-0.995V43.604z"/>
	<path fill="#CCCCCC" d="M268.349,42.792c-1.134-1.217-2.653-1.268-3.178-1.268c-3.481,0-4.528,2.739-4.528,4.867
		c0,2.889,1.842,4.56,4.46,4.56c1.42,0,2.57-0.541,3.33-1.248c0.457-0.423,0.76-0.864,1.064-1.319l-1.96-0.996
		c-0.322,0.625-0.81,1.554-2.23,1.554c-1.402,0-2.028-1.099-2.011-2.197h6.302C269.564,45.748,269.497,44.023,268.349,42.792z
		 M263.312,45.123c0.084-0.372,0.17-0.777,0.523-1.167c0.253-0.269,0.693-0.574,1.318-0.574c0.456,0,0.946,0.169,1.267,0.492
		c0.373,0.388,0.441,0.876,0.491,1.248H263.312z"/>
	<path fill="#CCCCCC" d="M270.423,50.631h2.602v-4.968c0-1.114,0.373-1.301,1.624-1.521l0.861-0.134v-2.3
		c-1.35,0.135-1.975,0.525-2.552,1.014v-0.928h-2.535V50.631z"/>
	<path fill="#CCCCCC" d="M279.254,48.724h4.394l0.592,1.908h3.176l-4.393-11.928h-3.11l-4.427,11.928h3.177L279.254,48.724z
		 M280.926,43.382c0.169-0.608,0.338-1.232,0.49-1.843l1.555,5.037h-3.025C280.217,45.68,280.673,44.279,280.926,43.382z"/>
	<path fill="#CCCCCC" d="M291.299,50.919c0.996,0,1.858-0.321,2.536-0.794c0.71-0.505,1.062-1.065,1.383-1.573l-1.958-1.012
		c-0.085,0.254-0.169,0.455-0.389,0.711c-0.541,0.606-1.184,0.606-1.319,0.606c-1.386,0-1.961-1.47-1.961-2.636
		c0-1.065,0.475-2.67,1.876-2.67c0.406,0,0.728,0.135,0.981,0.305c0.423,0.304,0.591,0.607,0.744,0.93l1.926-1.099
		c-1.116-1.842-2.788-2.112-3.768-2.112c-2.942,0-4.427,2.163-4.427,4.73C286.924,49.905,289.609,50.919,291.299,50.919z"/>
	<path fill="#CCCCCC" d="M299.358,43.604h1.724v-1.589h-1.708V39.26h-2.585v2.736h-1.285v1.588h1.285v4.258
		c0,0.845,0.016,1.47,0.372,1.994c0.556,0.812,1.536,0.862,2.434,0.862c0.472,0,0.81-0.05,1.368-0.132v-2.031l-0.932,0.032
		c-0.691,0-0.691-0.454-0.674-0.995V43.604z"/>
	<rect x="302.144" y="41.795" fill="#CCCCCC" width="2.569" height="8.836"/>
	<rect x="302.144" y="39.202" fill="#CCCCCC" width="2.569" height="1.573"/>
	<path fill="#CCCCCC" d="M310.609,41.539c-3.381-0.185-5.084,1.96-5.084,4.666c0,3.262,2.263,4.682,4.746,4.682
		c3.446,0,4.732-2.451,4.732-4.682C315.003,44.597,314.208,41.744,310.609,41.539z M310.271,48.824c-1.453,0-2.13-1.233-2.13-2.638
		c0-0.606,0.12-1.214,0.44-1.723c0.355-0.556,0.794-0.808,1.538-0.859c0.37-0.036,0.98-0.019,1.522,0.49
		c0.489,0.471,0.726,1.233,0.726,2.211C312.367,47.691,311.673,48.824,310.271,48.824z"/>
	<path fill="#CCCCCC" d="M322.385,41.946c-0.456-0.253-1.046-0.354-1.571-0.354c-0.625,0-1.199,0.151-1.604,0.321
		c-0.456,0.221-0.628,0.419-0.878,0.693v-0.78h-2.619v8.804h2.599v-4.764c0-1.101,0-2.199,1.372-2.199
		c0.506,0,0.961,0.206,1.164,0.677c0.103,0.237,0.119,0.523,0.119,1.318v4.968h2.586v-6.034
		C323.551,43.232,323.315,42.434,322.385,41.946z"/>
	<path fill="#CCCCCC" d="M237.928,80.664l-1.625,5.764h1.232l0.298-1.147h1.768l0.29,1.147h1.233l-1.664-5.764H237.928z
		 M238.054,84.3l0.628-2.607h0.032l0.636,2.607H238.054z"/>
	<path fill="#CCCCCC" d="M246.584,84.473c0,1.052-0.565,1.052-0.809,1.052c-0.777,0-0.777-0.715-0.777-1.06v-3.801h-1.311v3.731
		c0,0.518,0.023,1.179,0.58,1.705c0.354,0.329,0.975,0.478,1.579,0.478c0.527,0,1.022-0.117,1.423-0.438
		c0.589-0.48,0.596-1.312,0.596-1.659v-3.816h-1.281V84.473z"/>
	<path fill="#CCCCCC" d="M253.092,80.664h-1.162v2.144c0,0.221,0,0.267,0.024,0.659l0.031,0.583h-0.04
		c-0.022-0.04-0.101-0.252-0.126-0.299c-0.054-0.118-0.133-0.275-0.196-0.393l-1.485-2.694h-1.21v5.764h1.163v-2.702
		c0-0.149-0.032-0.88-0.039-1.045h0.039c0.298,0.7,0.306,0.722,0.432,0.951l1.532,2.796h1.036V80.664z"/>
	<rect x="254.277" y="80.664" fill="#CCCCCC" width="1.271" height="5.764"/>
	<rect x="282.421" y="80.664" fill="#CCCCCC" width="1.27" height="5.764"/>
	<polygon fill="#CCCCCC" points="259.156,86.428 259.156,81.716 260.594,81.716 260.594,80.664 256.367,80.664 256.367,81.716 
		257.837,81.716 257.837,86.428 	"/>
	<polygon fill="#CCCCCC" points="265.439,85.352 262.658,85.352 262.658,83.993 264.441,83.993 264.441,82.94 262.642,82.94 
		262.642,81.716 265.259,81.716 265.259,80.664 261.385,80.664 261.385,86.428 265.439,86.428 	"/>
	<path fill="#CCCCCC" d="M267.694,80.664h-1.399v5.764c0.951,0,1.776,0,1.941-0.015c0.463-0.04,0.817-0.079,1.232-0.291
		c0.636-0.321,0.793-1.013,0.793-1.666l0.008-0.981c0-1.296-0.094-1.697-0.347-2.066C269.594,80.93,269.099,80.664,267.694,80.664z
		 M268.974,84.198c0,1.107-0.519,1.202-1.03,1.202h-0.361v-3.715c0.676,0,0.951,0,1.195,0.354c0.196,0.282,0.211,0.761,0.211,1.453
		C268.989,83.688,268.974,84.001,268.974,84.198z"/>
	<path fill="#CCCCCC" d="M275.368,86.428l1.72-5.764h-1.257l-0.856,3.048c-0.093,0.346-0.189,0.691-0.275,1.036h-0.031
		c-0.046-0.181-0.141-0.511-0.274-0.982l-0.896-3.102h-1.265l1.76,5.764H275.368z"/>
	<path fill="#CCCCCC" d="M280.953,86.011c0.361-0.392,0.495-0.911,0.495-1.719v-1.398c0-0.927-0.182-1.438-0.503-1.783
		c-0.385-0.416-0.926-0.557-1.516-0.557c-0.542,0-1.084,0.149-1.447,0.549c-0.401,0.44-0.502,1.006-0.502,1.595v1.547
		c0,0.252,0.023,0.754,0.151,1.163c0.29,0.974,1.216,1.178,1.781,1.178C279.782,86.585,280.474,86.53,280.953,86.011z
		 M278.77,84.503v-2.001c0-0.228,0-0.887,0.697-0.887c0.668,0,0.668,0.486,0.668,0.887v2.001c0,0.401,0,1.039-0.682,1.039
		C278.888,85.542,278.77,85.109,278.77,84.503z"/>
	<path fill="#CCCCCC" d="M286.648,85.51c-0.699,0-0.699-0.605-0.699-0.919v-2.192c0-0.157,0.008-0.439,0.212-0.629
		c0.125-0.118,0.321-0.18,0.479-0.18c0.629,0,0.644,0.628,0.651,0.911h1.265c-0.016-0.463-0.078-1.172-0.598-1.579
		c-0.4-0.315-0.917-0.385-1.264-0.385c-1.344,0-2.051,0.746-2.051,2.066v1.736c0,1.179,0.307,1.508,0.544,1.737
		c0.36,0.353,0.824,0.51,1.492,0.51c0.252,0,0.849-0.055,1.256-0.384c0.479-0.386,0.558-0.802,0.605-1.031
		c0.039-0.243,0.047-0.29,0.054-0.706h-1.272C287.323,85.085,287.166,85.51,286.648,85.51z"/>
	<polygon fill="#CCCCCC" points="290.921,83.993 292.706,83.993 292.706,82.94 290.905,82.94 290.905,81.716 293.522,81.716 
		293.522,80.664 289.649,80.664 289.649,86.428 293.702,86.428 293.702,85.352 290.921,85.352 	"/>
	<polygon fill="#CCCCCC" points="226.782,96.321 228.054,96.321 228.054,93.918 229.758,93.918 229.758,92.848 228.054,92.848 
		228.054,91.608 230.615,91.608 230.615,90.556 226.782,90.556 	"/>
	<path fill="#CCCCCC" d="M233.27,90.445c-0.542,0-1.084,0.15-1.445,0.55c-0.401,0.44-0.502,1.006-0.502,1.594v1.548
		c0,0.251,0.023,0.755,0.148,1.162c0.29,0.975,1.219,1.179,1.784,1.179c0.368,0,1.059-0.055,1.538-0.573
		c0.362-0.393,0.496-0.911,0.496-1.721v-1.398c0-0.927-0.18-1.436-0.503-1.782C234.401,90.587,233.858,90.445,233.27,90.445z
		 M233.976,94.396c0,0.401,0,1.037-0.682,1.037c-0.566,0-0.684-0.432-0.684-1.037v-2.004c0-0.228,0-0.887,0.698-0.887
		c0.667,0,0.667,0.488,0.667,0.887V94.396z"/>
	<path fill="#CCCCCC" d="M240.148,92.228c0-1.547-1.187-1.672-2.121-1.672h-1.862v5.765h1.249v-2.356h0.424l1.091,2.356h1.375
		l-1.257-2.561C239.857,93.517,240.148,92.959,240.148,92.228z M238.419,92.982c-0.181,0.064-0.29,0.064-1.005,0.064v-1.594
		c0.708,0,0.864,0,1.061,0.07c0.251,0.094,0.377,0.29,0.377,0.692C238.851,92.527,238.82,92.841,238.419,92.982z"/>
	<path fill="#CCCCCC" d="M244.985,91.474c0.432,0,0.691,0.236,0.714,0.746h1.257c0-1.116-0.778-1.782-1.869-1.782
		c-0.558,0-1.077,0.054-1.516,0.454c-0.596,0.551-0.596,1.281-0.596,1.793v1.562c0,0.714,0.078,1.194,0.393,1.593
		c0.377,0.473,0.91,0.638,1.491,0.638c0.888,0,1.147-0.299,1.312-0.495h0.056l0.164,0.401h0.566v-3.079h-1.933v0.958h0.676v0.394
		c0,0.212,0,0.753-0.659,0.753c-0.621,0-0.763-0.463-0.763-1.218v-1.814C244.278,92.04,244.325,91.474,244.985,91.474z"/>
	<polygon fill="#CCCCCC" points="249.258,90.556 247.97,90.556 247.97,96.321 251.795,96.321 251.795,95.244 249.258,95.244 	"/>
	<path fill="#CCCCCC" d="M254.368,90.445c-0.542,0-1.084,0.15-1.444,0.55c-0.401,0.44-0.503,1.006-0.503,1.594v1.548
		c0,0.251,0.023,0.755,0.149,1.162c0.29,0.975,1.219,1.179,1.783,1.179c0.37,0,1.06-0.055,1.539-0.573
		c0.361-0.393,0.496-0.911,0.496-1.721v-1.398c0-0.927-0.182-1.436-0.503-1.782C255.498,90.587,254.957,90.445,254.368,90.445z
		 M255.074,94.396c0,0.401,0,1.037-0.682,1.037c-0.566,0-0.683-0.432-0.683-1.037v-2.004c0-0.228,0-0.887,0.698-0.887
		c0.667,0,0.667,0.488,0.667,0.887V94.396z"/>
	<path fill="#CCCCCC" d="M260.281,93.304v-0.039c0.448-0.102,0.793-0.55,0.793-1.249c0-0.478-0.195-0.966-0.619-1.224
		c-0.329-0.205-0.81-0.236-1.306-0.236h-1.9v5.765h1.862c0.731,0,1.226-0.032,1.642-0.456c0.386-0.384,0.448-0.816,0.448-1.24
		C261.2,93.776,260.667,93.359,260.281,93.304z M258.483,91.443h0.573c0.258,0,0.769,0,0.769,0.699c0,0.73-0.329,0.761-1.343,0.761
		V91.443z M259.111,95.41h-0.628v-1.617c0.447,0,0.896,0,1.076,0.07c0.299,0.124,0.37,0.447,0.37,0.722
		C259.929,95.174,259.613,95.41,259.111,95.41z"/>
	<path fill="#CCCCCC" d="M263.206,90.556l-1.625,5.765h1.232l0.299-1.147h1.768l0.291,1.147h1.232l-1.664-5.765H263.206z
		 M263.332,94.192l0.629-2.608h0.031l0.637,2.608H263.332z"/>
	<polygon fill="#CCCCCC" points="268.218,90.556 266.93,90.556 266.93,96.321 270.755,96.321 270.755,95.244 268.218,95.244 	"/>
	<path fill="#CCCCCC" d="M275.697,95.402c-0.699,0-0.699-0.604-0.699-0.918v-2.191c0-0.159,0.008-0.441,0.213-0.629
		c0.126-0.117,0.323-0.181,0.479-0.181c0.629,0,0.644,0.629,0.651,0.911h1.265c-0.015-0.463-0.078-1.169-0.596-1.579
		c-0.401-0.314-0.92-0.386-1.267-0.386c-1.341,0-2.048,0.747-2.048,2.067v1.737c0,1.178,0.306,1.508,0.542,1.735
		c0.361,0.354,0.825,0.512,1.492,0.512c0.252,0,0.849-0.055,1.257-0.385c0.479-0.385,0.558-0.8,0.605-1.028
		c0.039-0.243,0.048-0.291,0.055-0.707h-1.273C276.373,94.977,276.216,95.402,275.697,95.402z"/>
	<polygon fill="#CCCCCC" points="281.575,92.739 279.957,92.739 279.957,90.556 278.676,90.556 278.676,96.321 279.965,96.321 
		279.965,93.831 281.598,93.831 281.598,96.321 282.871,96.321 282.871,90.556 281.575,90.556 	"/>
	<path fill="#CCCCCC" d="M285.173,90.556l-1.625,5.765h1.232l0.299-1.147h1.768l0.291,1.147h1.232l-1.665-5.765H285.173z
		 M285.299,94.192l0.628-2.608h0.032l0.637,2.608H285.299z"/>
	<path fill="#CCCCCC" d="M292.054,92.699c0,0.22,0,0.267,0.024,0.66l0.031,0.582h-0.038c-0.024-0.04-0.103-0.252-0.126-0.3
		c-0.055-0.118-0.133-0.274-0.196-0.391l-1.483-2.695h-1.211v5.765h1.162v-2.703c0-0.148-0.031-0.879-0.039-1.043h0.039
		c0.299,0.698,0.308,0.723,0.432,0.95l1.533,2.797h1.036v-5.765h-1.163V92.699z"/>
	<path fill="#CCCCCC" d="M296.204,91.474c0.432,0,0.692,0.236,0.714,0.746h1.256c0-1.116-0.777-1.782-1.87-1.782
		c-0.557,0-1.075,0.054-1.515,0.454c-0.598,0.551-0.598,1.281-0.598,1.793v1.562c0,0.714,0.079,1.194,0.394,1.593
		c0.377,0.473,0.911,0.638,1.492,0.638c0.888,0,1.146-0.299,1.311-0.495h0.055l0.165,0.401h0.565v-3.079h-1.932v0.958h0.676v0.394
		c0,0.212,0,0.753-0.66,0.753c-0.62,0-0.762-0.463-0.762-1.218v-1.814C295.497,92.04,295.544,91.474,296.204,91.474z"/>
	<polygon fill="#CCCCCC" points="300.556,93.886 302.339,93.886 302.339,92.834 300.54,92.834 300.54,91.608 303.156,91.608 
		303.156,90.556 299.284,90.556 299.284,96.321 303.221,96.321 303.221,95.244 300.556,95.244 	"/>
	<path fill="#CCCCCC" d="M228.481,4.924h2.98l0.77,2.122h1.036L230.514,0h-1.036l-2.753,7.046h0.967L228.481,4.924z M229.971,0.849
		h0.02l1.174,3.286h-2.388L229.971,0.849z"/>
	<path fill="#CCCCCC" d="M234.577,4.165c0-0.918,0.493-1.599,1.51-1.599c0.641,0,1.036,0.405,1.036,1.027v3.454h0.839V3.691
		c0-1.095-0.414-1.865-1.757-1.865c-0.73,0-1.303,0.296-1.658,0.928h-0.02V1.944h-0.789v5.102h0.839V4.165z"/>
	<rect x="241.724" y="1.944" fill="#CCCCCC" width="0.839" height="5.102"/>
	<rect x="241.724" fill="#CCCCCC" width="0.839" height="1.026"/>
	<path fill="#CCCCCC" d="M244.464,4.165c0-0.918,0.493-1.599,1.51-1.599c0.641,0,1.036,0.405,1.036,1.027v3.454h0.839V3.691
		c0-1.095-0.414-1.865-1.757-1.865c-0.73,0-1.303,0.296-1.658,0.928h-0.02V1.944h-0.79v5.102h0.839V4.165z"/>
	<rect x="248.922" y="1.944" fill="#CCCCCC" width="0.839" height="5.102"/>
	<rect x="248.922" fill="#CCCCCC" width="0.839" height="1.026"/>
	<path fill="#CCCCCC" d="M251.182,5.931c0,0.937,0.345,1.115,1.214,1.115h0.642v-0.74h-0.385c-0.523,0-0.632-0.069-0.632-0.454
		V2.684h1.017v-0.74h-1.017v-1.53h-0.839v1.53h-0.868v0.74h0.868V5.931z"/>
	<rect x="253.74" y="1.944" fill="#CCCCCC" width="0.839" height="5.102"/>
	<rect x="253.74" fill="#CCCCCC" width="0.839" height="1.026"/>
	<path fill="#CCCCCC" d="M257.114,4.165c-0.869,0.168-1.727,0.414-1.727,1.569c0,1.017,0.76,1.431,1.688,1.431
		c0.711,0,1.332-0.247,1.796-0.789c0,0.553,0.276,0.789,0.711,0.789c0.266,0,0.454-0.049,0.602-0.138V6.375
		c-0.109,0.039-0.188,0.049-0.257,0.049c-0.267,0-0.267-0.178-0.267-0.573V3.227c0-1.194-0.997-1.401-1.914-1.401
		c-1.135,0-2.112,0.444-2.161,1.707h0.839c0.039-0.75,0.563-0.967,1.273-0.967c0.533,0,1.135,0.119,1.135,0.849
		C258.831,4.046,258.042,3.987,257.114,4.165z M258.821,5.27c0,0.464-0.454,1.155-1.559,1.155c-0.513,0-0.987-0.197-0.987-0.75
		c0-0.622,0.474-0.819,1.026-0.918c0.562-0.099,1.194-0.109,1.52-0.346V5.27z"/>
	<path fill="#CCCCCC" d="M261.067,5.931c0,0.937,0.345,1.115,1.214,1.115h0.641v-0.74h-0.385c-0.523,0-0.632-0.069-0.632-0.454
		V2.684h1.017v-0.74h-1.017v-1.53h-0.839v1.53h-0.869v0.74h0.869V5.931z"/>
	<rect x="263.624" fill="#CCCCCC" width="0.839" height="1.026"/>
	<rect x="263.624" y="1.944" fill="#CCCCCC" width="0.839" height="5.102"/>
	<polygon fill="#CCCCCC" points="267.833,7.046 269.698,1.944 268.819,1.944 267.428,6.198 267.408,6.198 265.977,1.944 
		265.04,1.944 266.935,7.046 	"/>
	<path fill="#CCCCCC" d="M272.247,7.164c1.145,0,1.954-0.612,2.181-1.737h-0.829c-0.148,0.661-0.632,0.997-1.323,0.997
		c-1.115,0-1.618-0.79-1.589-1.678h3.819c0.049-1.234-0.503-2.921-2.309-2.921c-1.391,0-2.398,1.125-2.398,2.655
		C269.849,6.039,270.619,7.164,272.247,7.164z M272.148,2.566c0.829,0,1.431,0.642,1.47,1.441h-2.931
		C270.747,3.227,271.27,2.566,272.148,2.566z"/>
	<rect x="277.874" fill="#CCCCCC" width="0.839" height="7.046"/>
	<path fill="#CCCCCC" d="M281.969,7.164c1.145,0,1.954-0.612,2.181-1.737h-0.829c-0.148,0.661-0.632,0.997-1.323,0.997
		c-1.115,0-1.618-0.79-1.589-1.678h3.819c0.049-1.234-0.503-2.921-2.309-2.921c-1.391,0-2.398,1.125-2.398,2.655
		C279.571,6.039,280.341,7.164,281.969,7.164z M281.87,2.566c0.829,0,1.431,0.642,1.47,1.441h-2.931
		C280.469,3.227,280.992,2.566,281.87,2.566z"/>
	<path fill="#CCCCCC" d="M287.058,7.164c0.701,0,1.352-0.247,1.628-0.809h0.02v0.691h0.839V0h-0.839v2.625h-0.02
		c-0.375-0.602-1.125-0.799-1.648-0.799c-1.559,0-2.329,1.214-2.329,2.655C284.71,5.921,285.489,7.164,287.058,7.164z
		 M287.128,2.566c1.155,0,1.608,0.928,1.608,1.934c0,0.957-0.434,1.925-1.559,1.925c-1.086,0-1.579-0.928-1.579-1.885
		C285.598,3.543,285.983,2.566,287.128,2.566z"/>
	<path fill="#CCCCCC" d="M294.156,6.365h0.02c0.375,0.602,1.125,0.799,1.648,0.799c1.559,0,2.329-1.214,2.329-2.655
		s-0.78-2.684-2.349-2.684c-0.701,0-1.352,0.247-1.628,0.809h-0.02V0h-0.839v7.046h0.839V6.365z M295.685,2.566
		c1.086,0,1.579,0.928,1.579,1.885c0,0.997-0.385,1.974-1.53,1.974c-1.155,0-1.609-0.928-1.609-1.934
		C294.126,3.533,294.56,2.566,295.685,2.566z"/>
	<path fill="#CCCCCC" d="M299.894,7.885c-0.158,0.296-0.345,0.464-0.691,0.464c-0.168,0-0.335-0.069-0.493-0.118V9
		c0.188,0.069,0.385,0.089,0.582,0.089c0.75,0,1.095-0.365,1.48-1.362l2.22-5.783h-0.888l-1.431,4.175h-0.02l-1.49-4.175h-0.947
		l2.023,5.073L299.894,7.885z"/>
</g>
<g>
</g>
<g>
</g>
<g>
</g>
<g>
</g>
<g>
</g>
<g>
</g>
<g>
</g>
<g>
</g>
<g>
</g>
<g>
</g>
<g>
</g>
</svg>
