<?xml version="1.0" encoding="utf-8"?>
<!-- Generator: Adobe Illustrator 17.1.0, SVG Export Plug-In . SVG Version: 6.00 Build 0)  -->
<!DOCTYPE svg PUBLIC "-//W3C//DTD SVG 1.1//EN" "http://www.w3.org/Graphics/SVG/1.1/DTD/svg11.dtd">
<svg version="1.1" id="Capa_1" xmlns="http://www.w3.org/2000/svg" xmlns:xlink="http://www.w3.org/1999/xlink" x="0px" y="0px"
	 viewBox="0 0 173.302 84.216" enable-background="new 0 0 173.302 84.216" xml:space="preserve">
<g>
	<polygon fill="#CCCCCC" points="9.824,18.893 9.913,18.893 22.997,39.952 29.914,39.952 29.914,8.496 23.438,8.496 23.438,29.599 
		23.35,29.599 10.221,8.496 3.348,8.496 3.348,39.952 9.824,39.952 	"/>
	<path fill="#CCCCCC" d="M48.486,40.701c3.04,0,6.212-1.189,8.635-4.317l0.705,3.568h4.406V22.947H49.014v5.155h6.961
		c-0.397,4.362-2.996,6.784-7.49,6.784c-6.212,0-8.547-5.287-8.547-10.529c0-5.507,2.335-10.794,8.547-10.794
		c3.26,0,5.859,1.806,6.652,5.287h6.608c-0.749-7.137-6.829-11.102-13.261-11.102c-9.736,0-15.463,7.269-15.463,16.609
		C33.022,33.432,38.749,40.701,48.486,40.701z"/>
	<path fill="#CCCCCC" d="M95.644,24.357c0-9.34-5.727-16.609-15.463-16.609c-9.736,0-15.464,7.269-15.464,16.609
		c0,9.075,5.727,16.344,15.464,16.344C89.917,40.701,95.644,33.432,95.644,24.357z M71.634,24.357
		c0-5.507,2.335-10.794,8.547-10.794c6.212,0,8.547,5.287,8.547,10.794c0,5.242-2.335,10.529-8.547,10.529
		C73.969,34.885,71.634,29.599,71.634,24.357z"/>
	<path fill="#CCCCCC" d="M11.939,44.743L0,76.198h7.005l2.467-7.005h11.763l2.379,7.005h7.181L19.032,44.743H11.939z M11.278,64.039
		l4.097-11.542h0.088l3.965,11.542H11.278z"/>
	<rect x="31.903" y="44.743" fill="#CCCCCC" width="6.256" height="5.154"/>
	<rect x="31.903" y="53.422" fill="#CCCCCC" width="6.256" height="22.776"/>
	<path fill="#CCCCCC" d="M57.688,56.197H57.6c-1.41-2.247-4.053-3.392-6.74-3.392c-6.696,0-10.089,5.684-10.089,11.807
		c0,6.3,3.348,12.204,10.221,12.204c2.908,0,5.463-1.058,6.917-3.525h0.088v2.908h5.948V44.743h-6.256V56.197z M52.534,72.101
		c-3.877,0-5.507-3.745-5.507-7.313c0-3.745,1.41-7.269,5.507-7.269c4.053,0,5.375,3.524,5.375,7.224
		C57.908,68.488,56.675,72.101,52.534,72.101z"/>
	<polygon fill="#CCCCCC" points="93.238,66.375 93.15,66.375 85.793,44.743 76.057,44.743 76.057,76.198 82.533,76.198 
		82.533,54.126 82.621,54.126 90.33,76.198 95.661,76.198 103.371,53.907 103.46,53.907 103.46,76.198 109.936,76.198 
		109.936,44.743 100.2,44.743 	"/>
	<path fill="#CCCCCC" d="M134.454,59.281c0-5.463-5.463-6.476-10.001-6.476c-5.11,0-10.352,1.763-10.705,7.622h6.255
		c0.221-2.468,1.763-3.436,4.142-3.436c2.203,0,4.053,0.396,4.053,3.084c0,2.555-3.568,2.422-7.4,2.995
		c-3.878,0.529-7.754,1.763-7.754,6.917c0,4.669,3.436,6.829,7.754,6.829c2.774,0,5.682-0.75,7.665-2.82
		c0.044,0.75,0.219,1.498,0.44,2.203h6.344c-0.573-0.924-0.792-2.995-0.792-5.066V59.281z M128.197,67.388
		c0,1.366-0.176,5.242-5.066,5.242c-2.026,0-3.833-0.573-3.833-2.908c0-2.29,1.763-2.952,3.702-3.348
		c1.938-0.353,4.14-0.397,5.198-1.323V67.388z"/>
	<path fill="#CCCCCC" d="M150.854,52.805c-2.82,0-5.287,1.102-6.784,3.525h-0.089v-2.908h-5.947v30.794h6.255V73.379h0.089
		c1.498,2.247,4.097,3.437,6.829,3.437c6.652,0,10-5.684,10-11.764C161.207,58.576,157.991,52.805,150.854,52.805z M149.533,72.101
		c-4.054,0-5.463-3.524-5.463-7.224c0-3.702,1.321-7.357,5.418-7.357c4.008,0,5.463,3.745,5.463,7.357
		C154.951,68.577,153.63,72.101,149.533,72.101z"/>
	<path fill="#CCCCCC" d="M154.095,31.835c1.11-2.519,1.788-5.272,1.909-8.172h-6.148v-1.847h0.003
		c0.001,0.027,0.006,0.053,0.007,0.08h6.142C155.585,9.73,145.598,0,133.331,0c-12.268,0-22.257,9.73-22.679,21.895h6.541
		c0.067-1.517,0.352-2.975,0.805-4.358c0.147,0.142,0.29,0.288,0.446,0.416c0.345,0.277,0.499,0.478,0.572,0.954
		c0.09,0.6,0.041,0.524,0.688,0.558c0.384,1.182,0.423,1.86,1.874,2.085c0.603,0.094,1.278,0.049,1.823,0.361
		c0.327,0.197,0.619,0.449,0.949,0.646c0.375,0.224,0.573,0.467,0.875,0.78c0.298,0.32,0.848,0.497,1.093,0.835
		c0.525,0.677-0.643,1.614-0.739,2.33c-0.173,1.301,1.372,2.288,2.253,2.992c1.167,0.921,0.833,2.179,0.66,3.504
		c-0.252,1.98-0.152,4.281,1.518,5.59c-7.011-1.541-12.339-7.568-12.798-14.927h-6.555c0.507,12.088,10.461,21.732,22.675,21.732
		c5.796,0,11.067-2.19,15.077-5.765l19.072,14.417l5.822-7.691L154.095,31.835z M131.471,38.184
		c-0.234-0.616-0.569-2.104-0.212-2.703c0.107-0.174,0.333-0.316,0.516-0.403c-0.062,0.058-0.118,0.138-0.19,0.206
		c0.12-0.057,0.213-0.105,0.316-0.174c0-0.011-0.008-0.024-0.014-0.024c0.626-0.595,1.652-1.125,1.923-1.975
		c0.104-0.339,0.016-0.706,0.214-1.025c0.258-0.421,0.826-0.585,1.237-0.815c0.417-0.224,0.812-0.447,0.841-0.959
		c0.026-0.411-0.268-0.786-0.202-1.21c0.131-0.772,1.578-1.306,1.033-2.147c-0.529-0.813-1.958-0.803-2.774-1.14
		c-0.712-0.296-1.124-0.954-1.778-1.339c-0.785-0.461-1.584-0.774-2.337-1.305c-0.782-0.545-1.729-0.973-2.679-0.58
		c-0.632,0.264-1.601,1.13-2.241,0.345c-0.242-0.305-0.05-0.664-0.203-0.973c-0.155-0.312-0.807-0.239-0.901-0.502
		c-0.132-0.327,0.618-0.565,0.595-0.659c-0.274-0.919-1.419,0.049-1.965-0.011c-0.544-0.065-1.053-0.771-1.064-1.3
		c-0.035-1.502,2.054-2.206,3.246-1.816c0.766,0.253,0.945,0.782,0.726,1.482c0.699,0.046,1.101-0.443,1.26-1.089
		c0.212-0.852,0.484-1.21,1.153-1.871c-0.011,0.034-0.041,0.052-0.054,0.08c0,0.006,0.08-0.039,0.098-0.044
		c0.32-0.258,0.666-0.489,0.953-0.811c0.343-0.39,0.528-0.8,1.028-1.045c0.56-0.275,2.372,0.066,2.122-1.121
		c-0.176-0.019-0.269-0.098-0.369-0.226c0.44-0.467,1.455-0.017,1.58,0.545c0.496,0.036,0.835-0.452,0.828-0.908
		c-0.019-0.553-0.517-0.729-0.931-1.01c-0.548-0.375-1.214-1.498-1.935-1.378c-1.146,0.191-1.573,1.894-2.893,1.472
		c-0.929-0.292-1.397-1.401-0.231-1.773c0.588-0.193,1.878-0.285,1.461-1.264c-0.494-1.147-1.607,0.284-2.271,0.411
		c-0.588,0.107-1.3,0.095-1.894,0.072c-0.474-0.022-0.616-0.074-0.773-0.323c0.222-0.143,0.454-0.269,0.683-0.401
		c0.267,0.25,0.775,0.275,1.139,0.223c0.27-0.043,0.671-0.167,0.55-0.524c-0.107-0.315-0.416-0.166-0.633-0.259
		c1.554-0.752,3.242-1.264,5.023-1.49c-0.144,0.692-1.435,1.185-0.475,1.883c0.547,0.393,0.745,0.362,1.035,0.984
		c0.171,0.372,0.409,0.99,0.909,1.01c0.503,0.013,0.803-0.595,0.803-1.014c0-0.57-0.378-0.935-0.881-1.147
		c-0.34-0.138-0.628-0.085-0.671-0.489c-0.028-0.317,0.391-0.918,0.68-1.033c0.434-0.175,0.709,0.151,1.041,0.371
		c0.391,0.254,0.62,0.303,1.083,0.272c0.896-0.067,1.73,0.183,1.429,1.266c-0.147,0.54-0.851,2.307,0.479,2.002
		c0.511-0.117,0.865-0.711,1.256-1.01c0.466-0.352,0.952-0.467,1.515-0.546c0.565-0.086,1.387-0.2,1.989-0.526
		c1.207,0.692,2.323,1.524,3.311,2.49c-0.329,0.086-0.698,0.111-0.988,0.27c-0.415,0.228-1.052,1.038-0.66,1.51
		c0.426,0.519,1.484-0.487,1.678,0.211c0.069,0.225-0.259,0.477-0.163,0.744c0.124,0.328,0.82,0.387,0.516,0.86
		c-0.212,0.334-1.118,0.264-1.473,0.58c-1.2,1.064,0.95,1.159,1.635,0.828c0.641-0.305,0.259-0.828,0.685-1.177
		c0.468-0.386,1.212-0.273,1.695,0.046c0.412,0.755,0.776,1.539,1.067,2.36c-0.487,0.054-0.782-0.105-1.228-0.624
		c-0.428-0.497-0.753-0.36-1.302-0.074c-0.638,0.335-1.147,0.562-1.88,0.628c-0.631,0.057-0.833,0.236-1.178,0.777
		c-0.613,0.98-1.879,1.818-2.097,2.989c-0.163,0.891,0.31,1.758,0.775,2.48c0.812,1.275,1.629,1.785,3.068,1.115
		c1.343-0.625,2.423-0.669,2.482,0.982c0.041,1.024,1.272,1.266,1.543,2.045c-2.071,6.658-8.261,11.499-15.599,11.499
		c-0.669,0-1.324-0.053-1.972-0.131C131.604,38.699,131.589,38.485,131.471,38.184z"/>
	<path fill="#CCCCCC" d="M131.94,35.083c-0.012,0.004-0.023,0.017-0.039,0.028c0,0.002,0.002,0.011,0,0.014
		C131.903,35.122,131.933,35.086,131.94,35.083z"/>
	<path fill="#CCCCCC" d="M128.019,16.229c0-0.001-0.003,0.001-0.006,0.002c-0.037,0.03-0.077,0.059-0.113,0.09
		C127.938,16.281,127.991,16.261,128.019,16.229z"/>
	<path fill="#CCCCCC" d="M125.346,19.849h0.052c0.124,0.485,0.16,0.585,0.773,0.541c0.33-0.023,0.948-0.117,0.908-0.581
		C126.741,19.677,125.626,19.629,125.346,19.849z"/>
</g>
<g>
</g>
<g>
</g>
<g>
</g>
<g>
</g>
<g>
</g>
<g>
</g>
<g>
</g>
<g>
</g>
<g>
</g>
<g>
</g>
<g>
</g>
</svg>
